Coordinates
version=1
nRows=4
nColumns=107
inDegrees=yes

Units are S.I. units (second, meters, Newtons, ...)
If the header above contains a line with 'inDegrees', this indicates whether rotational values are in degrees (yes) or radians (no).

endheader
time	sternoclavicular_r2	sternoclavicular_r3	unrotscap_r3	unrotscap_r2	acromioclavicular_r2	acromioclavicular_r3	acromioclavicular_r1	unrothum_r1	unrothum_r3	unrothum_r2	elv_angle	shoulder_elv	shoulder1_r2	shoulder_rot	elbow_flexion	pro_sup	deviation	flexion	proximal_distal_r1	proximal_distal_r3	cmc_flexion	cmc_abduction	mp_flexion	ip_flexion	mcp2_flexion	mcp2_abduction	pm2_flexion	md2_flexion	mcp3_flexion	mcp3_abduction	pm3_flexion	md3_flexion	mcp4_flexion	mcp4_abduction	pm4_flexion	md4_flexion	mcp5_flexion	mcp5_abduction	pm5_flexion	md5_flexion	bicpt_tx	bicpt_ty	bicpt_tz	bicpt2_tx	bicpt2_ty	bicpt2_tz	ptpt_tx	ptpt_ty	ptpt_tz	FCUpt_tx	FCUpt_ty	FCUpt_tz	EDCpt_tx	EDCpt_ty	EDCpt_tz	APLpt_tx	APLpt_ty	APLpt_tz	FPLpt_tx	FPLpt_ty	FPLpt_tz	FPLpt2_tx	FPLpt2_ty	FPLpt2_tz	PEC1pt2_tx	PEC1pt2_ty	PEC1pt2_tz	PEC1pt3_tx	PEC1pt3_ty	PEC1pt3_tz	PEC2pt2_tx	PEC2pt2_ty	PEC2pt2_tz	PEC2pt3_tx	PEC2pt3_ty	PEC2pt3_tz	PEC3pt2_tx	PEC3pt2_ty	PEC3pt2_tz	PEC3pt3_tx	PEC3pt3_ty	PEC3pt3_tz	DELT2pt2a_tx	DELT2pt2a_ty	DELT2pt2a_tz	DELT2pt2_tx	DELT2pt2_ty	DELT2pt2_tz	LAT1pt2_tx	LAT1pt2_ty	LAT1pt2_tz	LAT1pt3_tx	LAT1pt3_ty	LAT1pt3_tz	LAT2pt2_tx	LAT2pt2_ty	LAT2pt2_tz	LAT2pt3_tx	LAT2pt3_ty	LAT2pt3_tz	LAT3pt2_tx	LAT3pt2_ty	LAT3pt2_tz	LAT3pt3_tx	LAT3pt3_ty	LAT3pt3_tz
      0.40000000	     -0.31587024	      0.13378772	     -0.13378772	      0.31587024	     -0.06395730	      0.51688038	      0.23233418	     -0.23233418	     -0.51688038	      0.06395730	    100.58863075	     74.78508642	     -1.75560280	    -33.02592990	     30.58115818	     74.09158712	      0.32288490	     -0.61981276	      0.35286767	     -0.30990638	     34.19412517	    -14.57371097	    -13.75362647	     -1.50269449	     78.42963127	     13.64150536	     78.46844231	     83.94944007	     84.69649500	      4.03109104	     81.01261071	     58.15486963	     85.11173263	    -12.99413249	     91.00704719	     42.10304923	     93.83280564	    -14.24200905	     85.53096826	      5.56624526	      0.00091153	     -0.03110507	     -0.00486457	      0.01530867	     -0.01850752	     -0.00301593	      0.00207547	     -0.06843992	     -0.00601848	      0.01139189	     -0.18262087	     -0.00019081	     -0.00889097	      0.00294640	     -0.00041327	      0.00031243	      0.00012497	      0.00062487	      0.00039992	      0.00119975	      0.00067486	     -0.00001244	     -0.00020530	     -0.00024636	      0.00245129	      0.00860029	      0.00598281	     -0.00801863	      0.01936104	     -0.01836391	      0.00245129	      0.00860029	      0.00598281	      0.00054011	      0.01794844	     -0.00943124	      0.00389528	      0.00478251	      0.01583747	      0.00000000	      0.00747775	      0.00000000	     -0.00702149	     -0.03244845	     -0.00616400	      0.02015830	     -0.00086163	     -0.00902608	     -0.00087249	      0.01462465	     -0.00598281	      0.00240974	      0.02110603	     -0.01744987	     -0.00585817	      0.01267193	     -0.00535960	     -0.01221491	      0.02675646	     -0.02995561	     -0.02293411	      0.01416763	     -0.00718768	     -0.01520631	      0.03091120	     -0.03743412
      0.43333333	     -0.31538290	      0.13358131	     -0.13358131	      0.31538290	     -0.06385862	      0.51608292	      0.23197572	     -0.23197572	     -0.51608292	      0.06385862	    100.71276848	     74.66970492	     -1.75776941	    -33.63851950	     30.64450532	     74.51580877	      0.31840774	     -0.62488147	      0.34914103	     -0.31244073	     34.21983516	    -14.46717884	    -14.00742645	     -1.41053633	     77.98914248	     13.63724933	     78.42541928	     83.63437375	     84.52575130	      4.04758189	     81.01806288	     57.87773106	     84.98955988	    -12.98058260	     91.10561425	     42.12772580	     93.61449188	    -14.23933854	     85.76583395	      5.57781654	      0.00091363	     -0.03111233	     -0.00486574	      0.01527619	     -0.01852473	     -0.00295025	      0.00204412	     -0.06846019	     -0.00605265	      0.01143909	     -0.18260792	     -0.00018286	     -0.00894188	      0.00296815	     -0.00042419	      0.00031234	      0.00012493	      0.00062467	      0.00039979	      0.00119937	      0.00067465	     -0.00001245	     -0.00020494	     -0.00024593	      0.00244751	      0.00858702	      0.00597358	     -0.00800626	      0.01933117	     -0.01833558	      0.00244751	      0.00858702	      0.00597358	      0.00053928	      0.01792074	     -0.00941669	      0.00389085	      0.00477513	      0.01582640	      0.00000000	      0.00745454	      0.00000000	     -0.00701066	     -0.03239838	     -0.00614473	      0.02040288	     -0.00088308	     -0.00934768	     -0.00087115	      0.01460209	     -0.00597358	      0.00240603	      0.02107347	     -0.01742295	     -0.00584913	      0.01265238	     -0.00535133	     -0.01219606	      0.02671518	     -0.02990939	     -0.02289873	      0.01414577	     -0.00717659	     -0.01518285	      0.03086350	     -0.03737637
      0.46666667	     -0.31543938	      0.13360523	     -0.13360523	      0.31543938	     -0.06387006	      0.51617534	      0.23201726	     -0.23201726	     -0.51617534	      0.06387006	    100.71164016	     74.68307653	     -1.75774972	    -33.64253402	     30.64495569	     74.51535636	      0.31842169	     -0.62489223	      0.34915269	     -0.31244612	     34.21948089	    -14.46717007	    -14.00767296	     -1.41068210	     77.98696781	     13.63712537	     78.42517912	     83.63464196	     84.52515812	      4.04766947	     81.01801846	     57.87779817	     84.98931158	    -12.98051161	     91.10560688	     42.12770664	     93.61453789	    -14.23923649	     85.76590481	      5.57779234	      0.00091364	     -0.03111238	     -0.00486575	      0.01527618	     -0.01852485	     -0.00295030	      0.00204416	     -0.06846017	     -0.00605261	      0.01143904	     -0.18260793	     -0.00018286	     -0.00894182	      0.00296813	     -0.00042419	      0.00031234	      0.00012493	      0.00062467	      0.00039979	      0.00119937	      0.00067464	     -0.00001245	     -0.00020495	     -0.00024594	      0.00244795	      0.00858856	      0.00597465	     -0.00800769	      0.01933464	     -0.01833886	      0.00244795	      0.00858856	      0.00597465	      0.00053938	      0.01792395	     -0.00941837	      0.00389136	      0.00477599	      0.01582767	      0.00000000	      0.00745724	      0.00000000	     -0.00701192	     -0.03240418	     -0.00614696	      0.02040401	     -0.00088323	     -0.00935017	     -0.00087130	      0.01460470	     -0.00597465	      0.00240646	      0.02107724	     -0.01742607	     -0.00585018	      0.01265464	     -0.00535229	     -0.01219825	      0.02671997	     -0.02991475	     -0.02290283	      0.01414831	     -0.00717788	     -0.01518557	      0.03086903	     -0.03738306
      0.50000000	     -0.31570901	      0.13371944	     -0.13371944	      0.31570901	     -0.06392465	      0.51661656	      0.23221559	     -0.23221559	     -0.51661656	      0.06392465	    100.71454487	     74.74691521	     -1.75780041	    -33.42895580	     30.44075897	     73.98489596	      0.31789017	     -0.64302227	      0.34870818	     -0.32151114	     34.23505202	    -14.23946942	    -14.39027483	     -1.59868423	     77.17278480	     13.60407569	     77.91344616	     84.27313500	     84.49499861	      4.00765503	     80.86162792	     58.05677627	     85.10460987	    -12.98099427	     90.97580156	     41.93322087	     93.86500945	    -14.23352494	     85.52670947	      5.57884633	      0.00090689	     -0.03108898	     -0.00486198	      0.01531683	     -0.01846938	     -0.00303244	      0.00208335	     -0.06843483	     -0.00600988	      0.01138002	     -0.18262413	     -0.00019280	     -0.00887817	      0.00294094	     -0.00041052	      0.00031168	      0.00012467	      0.00062336	      0.00039895	      0.00119685	      0.00067323	     -0.00001246	     -0.00020477	     -0.00024572	      0.00245004	      0.00859590	      0.00597976	     -0.00801454	      0.01935116	     -0.01835454	      0.00245004	      0.00859590	      0.00597976	      0.00053984	      0.01793927	     -0.00942642	      0.00389381	      0.00478007	      0.01583381	      0.00000000	      0.00747007	      0.00000000	     -0.00701791	     -0.03243188	     -0.00615763	      0.02031948	     -0.00087574	     -0.00923745	     -0.00087205	      0.01461719	     -0.00597976	      0.00240851	      0.02109526	     -0.01744096	     -0.00585518	      0.01266546	     -0.00535687	     -0.01220867	      0.02674281	     -0.02994032	     -0.02292241	      0.01416040	     -0.00718402	     -0.01519855	      0.03089542	     -0.03741502
